<svg width="140" height="140" viewBox="0 0 140 140" fill="none" xmlns="http://www.w3.org/2000/svg">
<style>

@media (prefers-color-scheme: light) {
 path{
fill: #121212;
 }
}
@media (prefers-color-scheme: dark) {
 path{
fill: #FFFFFF;
 }
}
</style>
<path d="M82.2388 56.5358L94.1791 49.3549L106.119 42.1741L118.06 34.9932L130 27.8123V0.285645L118.06 7.46652L106.119 14.6474L94.1791 21.8283L82.2388 29.0091L70.2985 36.19V49.9533L58.3582 42.7725L46.4179 35.5916L33.8806 28.4107L21.9403 21.2299L10 14.049V41.5757L21.9403 48.7565L33.8806 55.9374L45.8209 63.1183L57.7612 70.2991L69.7015 77.48L57.7612 84.6609L45.8209 91.8417L33.8806 99.0226L21.9403 106.203L10 112.188V139.714L21.9403 132.533L33.8806 125.352L45.8209 118.172L57.7612 110.991L69.7015 103.81V90.0465L81.6418 97.2274L93.5821 104.408L105.522 111.589L117.463 118.77L129.403 125.951V98.4242L117.463 91.2433L105.522 84.0625L93.5821 76.8816L81.6418 69.7007L69.7015 62.5199L82.2388 56.5358Z"  />
</svg>
